<?xml version="1.0" encoding="UTF-8" standalone="no"?><!DOCTYPE svg PUBLIC "-//W3C//DTD SVG 1.1//EN" "http://www.w3.org/Graphics/SVG/1.1/DTD/svg11.dtd"><svg width="100%" height="100%" viewBox="0 0 2003 2001" version="1.1" xmlns="http://www.w3.org/2000/svg" xmlns:xlink="http://www.w3.org/1999/xlink" xml:space="preserve" xmlns:serif="http://www.serif.com/" style="fill-rule:evenodd;clip-rule:evenodd;stroke-linecap:round;stroke-linejoin:round;stroke-miterlimit:1.5;"><path d="M1504,1835l-1004,0l436.121,-539l131.758,0l436.121,539Z" style="fill:#b2b2b2;"/><clipPath id="_clip1"><path d="M1504,1835l-1004,0l436.121,-539l131.758,0l436.121,539Z"/></clipPath><g clip-path="url(#_clip1)"><path d="M1504.5,1765.63c-22.556,-323.584 -239.506,-586.293 -501.5,-586.293c-261.994,0 -478.944,262.709 -501.5,586.293c131.008,-80.91 310.622,-146.599 501.5,-146.599c190.878,0 370.492,65.689 501.5,146.599Z" style="fill:#979797;"/></g><path d="M1812,248.32c0,-30.532 -24.788,-55.32 -55.32,-55.32l-1470.36,0c-30.532,0 -55.32,24.788 -55.32,55.32l0,1016.36c0,30.532 24.788,55.32 55.32,55.32l1470.36,0c30.532,0 55.32,-24.788 55.32,-55.32l0,-1016.36Z" style="fill:#00abb5;stroke:#b2b2b2;stroke-width:40px;"/><path d="M1041.82,958.961l-122.868,-41.515l-168.867,327.702l291.735,-286.187Z" style="fill:#979797;"/><g><path d="M756.247,901.93l-6.935,343.992l188.641,-317.638l540.955,176.157l183.092,-778.142l-1351,635.275l445.247,-59.644Z" style="fill:#fff;"/><clipPath id="_clip2"><path d="M756.247,901.93l-6.935,343.992l188.641,-317.638l540.955,176.157l183.092,-778.142l-1351,635.275l445.247,-59.644Z"/></clipPath><g clip-path="url(#_clip2)"><path d="M828,1291l-189,-38l67,-314l55.796,-42.618l900.204,-570.083l-724.821,604.437" style="fill:#b2b2b2;"/></g></g></svg>